# xmcd
#
# Track frame offsets:
#	150
#	18842
#	31666
#	41791
#	55320
#	69792
#	87537
#	104339
#	123165
#
# Disc length: 1846 seconds
#
# Revision: 0
# Processed by: cddbd v1.4b42PL0 Copyright (c) Steve Scherf et al.
# Submitted via: audiograbber 1.80
#
DISCID=6a073409
DTITLE=Pier Béland - Quand J'aime Une Fois
DYEAR=1900
DGENRE=
TTITLE0=Quand J'aime Une Fois
TTITLE1=Corps À Corps
TTITLE2=Chacun Garde Dans Son Coeur
TTITLE3=Théo Et Antoinette
TTITLE4=Une Mère C'est Fait Pour Çà
TTITLE5=Femme Et Fauve
TTITLE6=Heureux En Amour
TTITLE7=La Dernère Chance
TTITLE8=L'amour C'est Tout Çà
EXTD=
EXTT0=
EXTT1=
EXTT2=
EXTT3=
EXTT4=
EXTT5=
EXTT6=
EXTT7=
EXTT8=
PLAYORDER=
